<?xml version="1.0" encoding="utf-8"?>
<!-- Generator: Adobe Illustrator 24.0.0, SVG Export Plug-In . SVG Version: 6.00 Build 0)  -->
<svg version="1.1" id="Layer_1" xmlns="http://www.w3.org/2000/svg" xmlns:xlink="http://www.w3.org/1999/xlink" x="0px" y="0px"
	 viewBox="0 0 519.21 156.07" style="enable-background:new 0 0 519.21 156.07;" xml:space="preserve">
<style type="text/css">
	.st0{fill:#F4F4F4;}
	.st1{fill:#BB271B;}
</style>
<g>
	<path class="st0" d="M369.15,61.15c-6.05,0-11.08,5.03-11.12,11.08l0.07,17.37l-53.04-57.11c-2.52-2.92-5.09-5.14-9.64-5.14h-11.04
		l-0.02,33.8l-111.44,0.02c-3.5,0-7.73,1.89-10.03,7.03l-10.51,22.72l-26.45-57.68c-1.76-3.74-5.72-5.9-9.6-5.9
		c-4.55,0-8.31,2.92-9.56,5.77L80.19,90.97L53.88,33.71c-1.89-4.16-6.16-6.36-10.14-6.36c-3.26-0.02-17.13,0-17.13,0l43.42,94.75
		c1.89,4.14,5.57,6.66,10.14,6.66c4.35,0,8.27-2.57,10.03-6.42c0.94-2.02,26.1-56.94,26.1-56.94s25.34,55.28,26.23,57.24
		c1.24,2.74,4.66,6.05,9.82,6.05c4.42,0,8.12-2.35,10.27-6.92l16.13-35.28c0.89-2.05,2.92-3.18,4.94-3.18h117.38
		c3.24,0,5.38-2.94,5.38-5.42l-0.02-11.34c0,0,52.82,56.83,54.17,58.24c1.83,1.92,4.2,3.9,8.45,3.9c4.98,0,11.08-3.94,11.08-11.08
		l0.07-34.28l26.29-0.02l-0.07,34.41c0,6.2,5.09,11.08,11.08,11.08h23.99c28.47-0.09,51.04-23.25,51.13-50.04
		c0.09-28.32-22.05-51.39-51.13-51.39l-23.94,0.02c-6.42-0.02-11.12,5.22-11.12,11.36c0,0,0.07,8.38,0.07,10.8l35.43-0.04
		c14.04,0,28.03,11.69,28.03,28.49c0,13.93-10.77,28.43-28.08,28.47c-0.39,0-7.77,0-7.77,0c-3.09-0.02-5.33-2.15-5.48-5.48V61.22
		C428.63,61.15,380.69,61.15,369.15,61.15z"/>
	<path class="st1" d="M195.83,128.5c-4.2,0-6.59-4.35-4.98-7.86l41.25-90c2.05-4.48,8.21-4.48,10.38-0.02
		c0.28,0.57,41.16,90.07,41.16,90.07c2.02,4.4-1.68,7.81-4.79,7.81H195.83z"/>
</g>
</svg>
