<?xml version="1.0" encoding="utf-8"?>
<!-- Generator: Adobe Illustrator 24.0.0, SVG Export Plug-In . SVG Version: 6.00 Build 0)  -->
<svg version="1.1" id="Layer_1" xmlns="http://www.w3.org/2000/svg" xmlns:xlink="http://www.w3.org/1999/xlink" x="0px" y="0px"
	 viewBox="0 0 481.82 227.02" style="enable-background:new 0 0 481.82 227.02;" xml:space="preserve">
<style type="text/css">
	.st0{fill:#F4F4F4;}
	.st1{fill:#BB271B;}
</style>
<path class="st0" d="M295.01,102.33c-2.78,0-5.09,2.31-5.11,5.09l0.03,7.98l-24.37-26.24c-1.16-1.34-2.34-2.36-4.43-2.36l-5.07,0
	l-0.01,15.53l-51.2,0.01c-1.61,0-3.55,0.87-4.61,3.23l-4.83,10.44l-12.15-26.5c-0.81-1.72-2.63-2.71-4.41-2.71
	c-2.09,0-3.82,1.34-4.39,2.65l-12.21,26.58l-12.09-26.31c-0.87-1.91-2.83-2.92-4.66-2.92c-1.5-0.01-7.87,0-7.87,0l19.95,43.53
	c0.87,1.9,2.56,3.06,4.66,3.06c2,0,3.8-1.18,4.61-2.95c0.43-0.93,11.99-26.16,11.99-26.16s11.64,25.4,12.05,26.3
	c0.57,1.26,2.14,2.78,4.51,2.78c2.03,0,3.73-1.08,4.72-3.18l7.41-16.21c0.41-0.94,1.34-1.46,2.27-1.46h53.93
	c1.49,0,2.47-1.35,2.47-2.49l-0.01-5.21c0,0,24.27,26.11,24.89,26.76c0.84,0.88,1.93,1.79,3.88,1.79c2.29,0,5.09-1.81,5.09-5.09
	l0.03-15.75l12.08-0.01l-0.03,15.81c0,2.85,2.34,5.09,5.09,5.09h11.02c13.08-0.04,23.45-10.68,23.49-22.99
	c0.04-13.01-10.13-23.61-23.49-23.61l-11,0.01c-2.95-0.01-5.11,2.4-5.11,5.22c0,0,0.03,3.85,0.03,4.96l16.28-0.02
	c6.45,0,12.88,5.37,12.88,13.09c0,6.4-4.95,13.06-12.9,13.08c-0.18,0-3.57,0-3.57,0c-1.42-0.01-2.45-0.99-2.52-2.52v-18.27
	C322.34,102.33,300.31,102.33,295.01,102.33z"/>
<path class="st1" d="M215.38,133.27c-1.93,0-3.03-2-2.29-3.61l18.95-41.35c0.94-2.06,3.77-2.06,4.77-0.01
	c0.13,0.26,18.91,41.38,18.91,41.38c0.93,2.02-0.77,3.59-2.2,3.59H215.38z"/>
</svg>
