<?xml version="1.0" encoding="utf-8"?>
<!-- Generator: Adobe Illustrator 22.1.0, SVG Export Plug-In . SVG Version: 6.00 Build 0)  -->
<svg version="1.1" id="Layer_1" xmlns="http://www.w3.org/2000/svg" xmlns:xlink="http://www.w3.org/1999/xlink" x="0px" y="0px"
	 viewBox="0 0 841.9 595.3" style="enable-background:new 0 0 841.9 595.3;" xml:space="preserve">
<style type="text/css">
	.st0{fill:#353535;}
	.st1{fill:#BB271B;}
	.st2{fill:#F4F4F4;}
</style>
<path class="st2" d="M511.3,246.5c-4,0-9,3.2-9,9l-0.1,16.5l-44-48.3c-2.1-2.4-5.3-5.4-9.4-5.4l-9,0l0,28.2l-90.2,0
	c-3,0-6.7,1.7-8.3,5.5l-9.2,20l-21.5-47.7c-1.8-4.5-5.3-6.1-8.6-6.1c-3.3,0-6.9,2.3-8.4,6.2L271.8,272l-22.4-48.6
	c-1.6-3.5-5.2-5.3-8.2-5.2c-2.7,0.1-14,0-14,0l36.2,78.9c1.4,3.6,4.6,6,8.4,6c3.5,0,7-2.2,8.3-5.4c0.7-1.7,21.8-51.2,21.8-51.2
	s21.1,49.2,21.7,50.9c1,2.8,4,5.7,8.4,5.7c3.6,0,7.1-2.2,8.4-5.8l13.4-29.9c1.1-2.3,2.9-3,4.3-3l95.5,0.1c2.5,0,4.6-2,4.5-4.6l0-9.4
	c0,0,43.6,47.3,44.8,48.5c1.9,1.9,5.4,4.1,9,4.1c3.7-0.1,8-2.6,8.3-8.9l0-29.7l22.5,0l-0.1,29.7c0,4.9,4.6,9,9.8,9h19.8
	c9-0.6,42.3-6.3,42.3-42.4c0-35.4-31.7-42.6-46.2-42.5h-16.7c-1.8,0-4.9,0.6-7.1,3.5c-1.2,1.5-1.8,3.1-1.9,5.5c-0.1,3.1,0,7,0,9
	l21.3,0c6.3,0,32.7-0.6,32.7,24.5c0,24-23.7,24.6-31.6,24.6c-2.8,0-4.5-2.4-4.5-4.5l0-34.3C560.6,246.5,520.9,246.5,511.3,246.5z"/>
<path class="st1" d="M366.6,303.2c-3.5,0-4.9-3.7-3.9-5.9l34.8-76.2c1.9-4.6,6.8-3.2,8.1-0.1c0.2,0.5,34.4,76.4,34.4,76.4
	c1.2,3.9-1.4,5.7-3.8,5.7L366.6,303.2z"/>
<g>
	<g>
		<path class="st2" d="M319,329.3v9.7c0,4.1,2.3,5.1,4.4,5.1c2.6,0,4.4-1.1,4.4-5.1v-9.7h1.7v9.6c0,5.1-2.8,6.6-6.1,6.6
			c-3.2,0-6.1-1.7-6.1-6.5v-9.8H319z"/>
		<path class="st2" d="M333.4,336.7c0-1,0-2,0-2.9h1.5c0,0.4,0.1,1.7,0.1,2.1c0.5-1.1,1.4-2.3,3.8-2.3c2.1,0,3.9,1.2,3.9,4.4v7.5
			H341v-7.3c0-1.9-0.8-3.2-2.7-3.2c-2.5,0-3.4,2-3.4,4.4v6h-1.5V336.7z"/>
		<path class="st2" d="M346.2,328.4h1.5v2.4h-1.5V328.4z M346.2,333.8h1.5v11.6h-1.5V333.8z"/>
		<path class="st2" d="M351.5,333.8c1.7,5,3,8.6,3.4,10.1h0c0.3-1.1,1.5-4.5,3.5-10.1h1.6l-4.3,11.6H354l-4.1-11.6H351.5z"/>
		<path class="st2" d="M362.9,339.8c0,2.7,1.4,4.5,3.5,4.5c2,0,2.7-1.1,3.1-2h1.6c-0.5,1.5-1.7,3.4-4.7,3.4c-3.6,0-5-3-5-6
			c0-3.4,1.7-6.2,5.1-6.2c3.6,0,4.8,3,4.8,5.3c0,0.3,0,0.6,0,1H362.9z M369.7,338.6c0-2.1-1.1-3.8-3.3-3.8c-2.2,0-3.2,1.6-3.5,3.8
			H369.7z"/>
		<path class="st2" d="M374,336.9c0-1.8,0-2.7,0-3.1h1.5c0,0.3,0.1,1.2,0.1,2.5c0.6-1.7,2.1-2.7,4-2.8v1.6c-2.4,0.1-4,1.6-4,4.4v5.8
			H374V336.9z"/>
		<path class="st2" d="M382.1,342.1c0.4,1.4,1.4,2.2,3.1,2.2c1.9,0,2.7-0.9,2.7-2c0-1.2-0.5-1.8-3-2.4c-3.1-0.8-3.8-1.7-3.8-3.3
			c0-1.6,1.2-3.2,4-3.2c2.8,0,4,1.7,4.2,3.3h-1.5c-0.2-0.9-0.9-2-2.7-2c-1.8,0-2.4,0.9-2.4,1.7c0,1,0.5,1.5,2.7,2
			c3.4,0.8,4.1,1.9,4.1,3.6c0,2.1-1.7,3.5-4.3,3.5c-2.8,0-4.3-1.4-4.6-3.5H382.1z"/>
		<path class="st2" d="M392.2,328.4h1.5v2.4h-1.5V328.4z M392.2,333.8h1.5v11.6h-1.5V333.8z"/>
		<path class="st2" d="M395.8,333.8h2.1v-3.5h1.5v3.5h2.7v1.3h-2.7v7.2c0,1.2,0.3,1.9,1.4,1.9c0.3,0,0.8,0,1.1-0.1v1.2
			c-0.4,0.2-1.1,0.2-1.6,0.2c-1.6,0-2.4-0.8-2.4-2.7v-7.7h-2.1V333.8z"/>
		<path class="st2" d="M404.5,333.8c2.1,6.1,3.1,9,3.5,10.2h0c0.4-1.4,1.3-4,3.4-10.2h1.6l-4.3,12.2c-1.2,3.4-2.1,4.2-4.3,4.2
			c-0.4,0-0.7,0-1.1-0.1v-1.4c0.3,0,0.7,0.1,1,0.1c1.6,0,2.1-0.7,2.9-2.9l-4.4-12.1H404.5z"/>
		<path class="st2" d="M430.6,339.5c0,3.3-1.8,6.1-5.3,6.1c-3.2,0-5.2-2.6-5.2-6.1c0-3.4,1.9-6.1,5.3-6.1
			C428.5,333.5,430.6,335.9,430.6,339.5z M421.7,339.6c0,2.7,1.4,4.7,3.7,4.7c2.3,0,3.6-1.9,3.6-4.7c0-2.7-1.3-4.7-3.7-4.7
			C422.9,334.9,421.7,336.9,421.7,339.6z"/>
		<path class="st2" d="M433.7,345.4v-10.2h-1.9v-1.3h1.9v-1.5c0-2,0.7-4.1,3.2-4.1c0.4,0,0.9,0.1,1.2,0.2v1.4
			c-0.3-0.1-0.8-0.1-1.1-0.1c-1.3,0-1.8,0.9-1.8,2.7v1.4h2.4v1.3h-2.4v10.2H433.7z"/>
		<path class="st2" d="M448.5,345.4l-4.4-16.1h1.7c1.2,4.5,3.3,12.4,3.6,14.2h0c0.4-1.8,2.8-10,3.9-14.2h1.7
			c1,3.8,3.4,12.6,3.7,14.2h0c0.5-2.5,3-10.6,4-14.2h1.6l-4.8,16.1h-1.8c-1-3.7-3.3-12.3-3.6-13.9h0c-0.4,2.2-2.7,10.1-3.8,13.9
			H448.5z"/>
		<path class="st2" d="M475,343c0,1,0.1,2,0.2,2.3h-1.5c-0.1-0.3-0.2-0.8-0.2-1.7c-0.4,0.8-1.4,1.9-3.7,1.9c-2.7,0-3.9-1.8-3.9-3.5
			c0-2.6,2-3.7,5.5-3.7c0.9,0,1.6,0,2.1,0v-1.1c0-1.1-0.3-2.5-2.8-2.5c-2.2,0-2.5,1.1-2.7,2h-1.5c0.1-1.4,1-3.3,4.3-3.3
			c2.7,0,4.2,1.1,4.2,3.7V343z M473.5,339.6c-0.4,0-1.4,0-2.1,0c-2.4,0-3.9,0.7-3.9,2.5c0,1.3,0.9,2.3,2.5,2.3
			c3.1,0,3.5-2.1,3.5-4.4V339.6z"/>
		<path class="st2" d="M478.6,328.4h1.5v2.4h-1.5V328.4z M478.6,333.8h1.5v11.6h-1.5V333.8z"/>
		<path class="st2" d="M485.4,339.5c1-1.1,3.9-4.1,5.5-5.8h1.9l-4.5,4.6l5,7h-1.8l-4.3-6l-1.8,1.8v4.2h-1.5v-16.9h1.5V339.5z"/>
		<path class="st2" d="M503.2,343c0,1,0.1,2,0.2,2.3h-1.5c-0.1-0.3-0.2-0.8-0.2-1.7c-0.4,0.8-1.4,1.9-3.7,1.9
			c-2.7,0-3.9-1.8-3.9-3.5c0-2.6,2-3.7,5.5-3.7c0.9,0,1.6,0,2.1,0v-1.1c0-1.1-0.3-2.5-2.8-2.5c-2.2,0-2.5,1.1-2.7,2h-1.5
			c0.1-1.4,1-3.3,4.3-3.3c2.7,0,4.2,1.1,4.2,3.7V343z M501.7,339.6c-0.4,0-1.4,0-2.1,0c-2.4,0-3.9,0.7-3.9,2.5
			c0,1.3,0.9,2.3,2.5,2.3c3.1,0,3.5-2.1,3.5-4.4V339.6z"/>
		<path class="st2" d="M505.2,333.8h2.1v-3.5h1.5v3.5h2.7v1.3h-2.7v7.2c0,1.2,0.3,1.9,1.4,1.9c0.3,0,0.8,0,1.1-0.1v1.2
			c-0.4,0.2-1.1,0.2-1.6,0.2c-1.6,0-2.4-0.8-2.4-2.7v-7.7h-2.1V333.8z"/>
		<path class="st2" d="M523.5,339.5c0,3.3-1.8,6.1-5.3,6.1c-3.2,0-5.2-2.6-5.2-6.1c0-3.4,1.9-6.1,5.3-6.1
			C521.4,333.5,523.5,335.9,523.5,339.5z M514.6,339.6c0,2.7,1.4,4.7,3.7,4.7c2.3,0,3.6-1.9,3.6-4.7c0-2.7-1.3-4.7-3.7-4.7
			C515.7,334.9,514.6,336.9,514.6,339.6z"/>
	</g>
</g>
<g>
	<g>
		<path class="st2" d="M297.4,374.4v-16.1h2.3c2.4,3.8,7.9,12.3,8.9,14.1h0c-0.1-2.2-0.1-4.6-0.1-7.3v-6.8h1.6v16.1h-2.1
			c-2.3-3.6-7.9-12.6-9-14.4h0c0.1,2,0.1,4.5,0.1,7.4v7H297.4z"/>
		<path class="st2" d="M314.7,368.8c0,2.7,1.4,4.5,3.5,4.5c2,0,2.7-1.1,3.1-2h1.6c-0.5,1.5-1.7,3.4-4.7,3.4c-3.6,0-5-3-5-6
			c0-3.4,1.7-6.2,5.1-6.2c3.6,0,4.8,3,4.8,5.3c0,0.3,0,0.6,0,1H314.7z M321.5,367.6c0-2.1-1.1-3.8-3.3-3.8c-2.2,0-3.2,1.6-3.5,3.8
			H321.5z"/>
		<path class="st2" d="M324.2,362.8h2.1v-3.5h1.5v3.5h2.7v1.3h-2.7v7.2c0,1.2,0.3,1.9,1.4,1.9c0.3,0,0.8,0,1.1-0.1v1.2
			c-0.4,0.2-1.1,0.2-1.6,0.2c-1.6,0-2.4-0.8-2.4-2.7v-7.7h-2.1V362.8z"/>
		<path class="st2" d="M333.2,362.8c1.6,5.7,2.5,9,2.7,10.1h0c0.2-1,1.2-4.3,2.9-10.1h1.6c2,6.9,2.6,8.9,2.8,9.8h0
			c0.3-1.3,0.8-3,2.8-9.8h1.6l-3.6,11.6h-1.7c-1.2-4.2-2.5-8.7-2.8-9.8h0c-0.2,1.2-1.4,5.1-2.8,9.8H335l-3.4-11.6H333.2z"/>
		<path class="st2" d="M359.7,368.5c0,3.3-1.8,6.1-5.3,6.1c-3.2,0-5.2-2.6-5.2-6.1c0-3.4,1.9-6.1,5.3-6.1
			C357.6,362.5,359.7,364.9,359.7,368.5z M350.8,368.6c0,2.7,1.4,4.7,3.7,4.7c2.3,0,3.6-1.9,3.6-4.7c0-2.7-1.3-4.7-3.7-4.7
			C352,363.9,350.8,365.9,350.8,368.6z"/>
		<path class="st2" d="M362.5,365.9c0-1.8,0-2.7,0-3.1h1.5c0,0.3,0.1,1.2,0.1,2.5c0.6-1.7,2.1-2.7,4-2.8v1.6c-2.4,0.1-4,1.6-4,4.4
			v5.8h-1.5V365.9z"/>
		<path class="st2" d="M371.8,368.5c1-1.1,3.9-4.1,5.5-5.8h1.9l-4.5,4.6l5,7h-1.8l-4.3-6l-1.8,1.8v4.2h-1.5v-16.9h1.5V368.5z"/>
		<path class="st2" d="M389.3,367v7.3h-1.6v-16.1h6c3.2,0,4.9,1.7,4.9,4.3c0,2.1-1.2,3.4-2.9,3.8c1.5,0.4,2.6,1.4,2.6,4.2v0.7
			c0,1.1-0.1,2.6,0.2,3.2h-1.6c-0.3-0.7-0.2-2-0.2-3.4v-0.4c0-2.5-0.7-3.5-3.7-3.5H389.3z M389.3,365.6h3.7c2.7,0,3.9-1,3.9-3
			c0-1.9-1.2-2.9-3.6-2.9h-4V365.6z"/>
		<path class="st2" d="M402.5,368.8c0,2.7,1.4,4.5,3.5,4.5c2,0,2.7-1.1,3.1-2h1.6c-0.5,1.5-1.7,3.4-4.7,3.4c-3.6,0-5-3-5-6
			c0-3.4,1.7-6.2,5.1-6.2c3.6,0,4.8,3,4.8,5.3c0,0.3,0,0.6,0,1H402.5z M409.3,367.6c0-2.1-1.1-3.8-3.3-3.8c-2.2,0-3.2,1.6-3.5,3.8
			H409.3z"/>
		<path class="st2" d="M414.1,371.1c0.4,1.4,1.4,2.2,3.1,2.2c1.9,0,2.7-0.9,2.7-2c0-1.2-0.5-1.8-3-2.4c-3.1-0.8-3.8-1.7-3.8-3.3
			c0-1.6,1.2-3.2,4-3.2c2.8,0,4,1.7,4.2,3.3h-1.5c-0.2-0.9-0.9-2-2.7-2c-1.8,0-2.4,0.9-2.4,1.7c0,1,0.5,1.5,2.7,2
			c3.4,0.8,4.1,1.9,4.1,3.6c0,2.1-1.7,3.5-4.3,3.5c-2.8,0-4.3-1.4-4.6-3.5H414.1z"/>
		<path class="st2" d="M424.8,368.8c0,2.7,1.4,4.5,3.5,4.5c2,0,2.7-1.1,3.1-2h1.6c-0.5,1.5-1.7,3.4-4.7,3.4c-3.6,0-5-3-5-6
			c0-3.4,1.7-6.2,5.1-6.2c3.6,0,4.8,3,4.8,5.3c0,0.3,0,0.6,0,1H424.8z M431.6,367.6c0-2.1-1.1-3.8-3.3-3.8c-2.2,0-3.2,1.6-3.5,3.8
			H431.6z"/>
		<path class="st2" d="M444.2,372c0,1,0.1,2,0.2,2.3h-1.5c-0.1-0.3-0.2-0.8-0.2-1.7c-0.4,0.8-1.4,1.9-3.7,1.9
			c-2.7,0-3.9-1.8-3.9-3.5c0-2.6,2-3.7,5.5-3.7c0.9,0,1.6,0,2.1,0v-1.1c0-1.1-0.3-2.5-2.8-2.5c-2.2,0-2.5,1.1-2.7,2h-1.5
			c0.1-1.4,1-3.3,4.3-3.3c2.7,0,4.2,1.1,4.2,3.7V372z M442.7,368.6c-0.4,0-1.4,0-2.1,0c-2.4,0-3.9,0.7-3.9,2.5
			c0,1.3,0.9,2.3,2.5,2.3c3.1,0,3.5-2.1,3.5-4.4V368.6z"/>
		<path class="st2" d="M447.8,365.9c0-1.8,0-2.7,0-3.1h1.5c0,0.3,0.1,1.2,0.1,2.5c0.6-1.7,2.1-2.7,4-2.8v1.6c-2.4,0.1-4,1.6-4,4.4
			v5.8h-1.5V365.9z"/>
		<path class="st2" d="M464.4,370.9c-0.5,2-1.9,3.7-4.6,3.7c-3,0-5-2.2-5-6c0-3.2,1.8-6.1,5.2-6.1c3.1,0,4.3,2.2,4.5,3.8h-1.5
			c-0.3-1.3-1.1-2.4-3-2.4c-2.3,0-3.6,1.9-3.6,4.7c0,2.7,1.2,4.7,3.5,4.7c1.6,0,2.5-0.8,3.1-2.4H464.4z"/>
		<path class="st2" d="M468.5,357.4v7.2c0.6-1.1,1.7-2.1,3.7-2.1c1.7,0,3.9,0.9,3.9,4.5v7.4h-1.5v-7.1c0-2.1-0.9-3.3-2.8-3.3
			c-2.2,0-3.3,1.4-3.3,4v6.4h-1.5v-16.9H468.5z"/>
		<path class="st2" d="M498.7,374.4h-1.3c-0.1-0.2-0.2-1-0.2-2.4c-0.6,1.1-1.9,2.6-5.1,2.6c-4.6,0-7-3.5-7-8.1
			c0-4.8,2.6-8.4,7.3-8.4c3.6,0,5.9,1.9,6.4,4.8h-1.6c-0.6-2.1-2.1-3.4-4.8-3.4c-3.9,0-5.6,3.1-5.6,6.9c0,3.5,1.6,6.7,5.4,6.7
			c3.8,0,4.8-2.5,4.8-5.7v-0.2h-4.9v-1.5h6.5V374.4z"/>
		<path class="st2" d="M502.2,365.9c0-1.8,0-2.7,0-3.1h1.5c0,0.3,0.1,1.2,0.1,2.5c0.6-1.7,2.1-2.7,4-2.8v1.6c-2.4,0.1-4,1.6-4,4.4
			v5.8h-1.5V365.9z"/>
		<path class="st2" d="M519.6,368.5c0,3.3-1.8,6.1-5.3,6.1c-3.2,0-5.2-2.6-5.2-6.1c0-3.4,1.9-6.1,5.3-6.1
			C517.5,362.5,519.6,364.9,519.6,368.5z M510.6,368.6c0,2.7,1.4,4.7,3.7,4.7c2.3,0,3.6-1.9,3.6-4.7c0-2.7-1.3-4.7-3.7-4.7
			C511.8,363.9,510.6,365.9,510.6,368.6z"/>
		<path class="st2" d="M531.2,371c0,1.1,0,2.8,0,3.4h-1.5c0-0.3-0.1-1-0.1-1.9c-0.5,1.3-1.7,2.2-3.6,2.2c-1.8,0-3.8-0.8-3.8-4.2
			v-7.6h1.5v7.3c0,1.6,0.5,3.1,2.6,3.1c2.4,0,3.3-1.3,3.3-4.4v-6h1.5V371z"/>
		<path class="st2" d="M536.4,372.8v6.2h-1.5v-13.3c0-0.9,0-1.9,0-2.8h1.5c0,0.4,0.1,1.1,0.1,2c0.7-1.3,1.9-2.2,3.9-2.2
			c2.7,0,4.6,2.3,4.6,5.8c0,4.2-2.2,6.4-5,6.4C538,374.6,537,373.8,536.4,372.8z M543.4,368.3c0-2.6-1.2-4.4-3.4-4.4
			c-2.6,0-3.7,1.6-3.7,4.6c0,2.9,0.8,4.7,3.5,4.7C542.1,373.3,543.4,371.4,543.4,368.3z"/>
	</g>
</g>
</svg>
