<?xml version="1.0" encoding="utf-8"?>
<!-- Generator: Adobe Illustrator 24.0.0, SVG Export Plug-In . SVG Version: 6.00 Build 0)  -->
<svg version="1.1" id="Layer_1" xmlns="http://www.w3.org/2000/svg" xmlns:xlink="http://www.w3.org/1999/xlink" x="0px" y="0px"
	 viewBox="0 0 243.42 77.15" style="enable-background:new 0 0 243.42 77.15;" xml:space="preserve">
<style type="text/css">
	.st0{fill:#F4F4F4;}
	.st1{fill:#BB271B;}
</style>
<path class="st0" d="M173.91,29.93c-2.53,0-4.47,2.27-4.44,4.44l-0.04,10.82l-26.14-28.03c-1.16-1.34-2.17-2.76-4.44-2.76h-4.43
	l-0.01,15.53l-49.53-0.01c-2.01,0-3.24,0.84-4.44,3.44l-5.72,12.35L61.63,17.1c-0.81-1.72-2.4-2.71-4.18-2.72
	c-2.09,0-3.59,1.5-4.16,2.81L40.18,45.81l-13.05-28.5c-0.87-1.91-2.38-2.92-4.21-2.93c-1.5-0.01-6.91,0-6.91,0l19.95,43.53
	c0.87,1.9,2.12,3.01,4.22,3.01c2,0,3.38-1.17,4.27-3.07c0.43-0.92,13-28.39,13-28.39S70.21,57.29,70.62,58.2
	c0.53,1.15,1.73,2.72,4.1,2.72c2.03,0,3.39-1.17,4.07-2.65l8.22-17.91c0.44-1.03,1.41-1.58,2.34-1.58l51.43-0.01
	c1.49,0,2.5-1.28,2.5-2.41v-6.24c0,0,26.27,28.21,26.88,28.87c1.67,1.8,3.36,2.57,5.73,1.46c2.08-0.97,2.53-3.16,2.44-5.44V38.79
	l12.08-0.01l0.1,17.12c0,2.85,1.71,5.09,5.09,5.09h11.02c13.08-0.04,23.45-10.68,23.49-22.99c0.04-13.01-10.13-23.61-23.49-23.61
	h-11.64c-2.76-0.03-4.44,2.29-4.44,4.44c0,0,0.01,3.36,0,4.47l16.28-0.02c8.96,0.01,14.18,7.45,14.18,15.5
	c0,5.7-5.67,13.28-14.2,13.29c-0.18,0-4.87,0-4.87,0c-1.42-0.01-2.45-0.99-2.52-2.52V29.93C199.43,29.93,179.2,29.93,173.91,29.93z"
	/>
<path class="st1" d="M93.75,60.87c-1.93,0-3.03-2-2.29-3.61l18.95-41.35c0.94-2.06,3.77-2.06,4.77-0.01
	c0.13,0.26,18.91,41.38,18.91,41.38c0.93,2.02-0.77,3.59-2.2,3.59H93.75z"/>
</svg>
