<?xml version="1.0" encoding="utf-8"?>
<!-- Generator: Adobe Illustrator 24.0.0, SVG Export Plug-In . SVG Version: 6.00 Build 0)  -->
<svg version="1.1" id="Layer_1" xmlns="http://www.w3.org/2000/svg" xmlns:xlink="http://www.w3.org/1999/xlink" x="0px" y="0px"
	 viewBox="0 0 673.8 180.2" style="enable-background:new 0 0 673.8 180.2;" xml:space="preserve">
<style type="text/css">
	.st0{fill:#353535;}
	.st1{fill:#BB271B;}
</style>
<title>openLI</title>
<path class="st0" d="M101.9,87c0,31.2-18.7,54.1-51.4,54.1C18.7,141.2,0,118.3,0,87.6c0-31.9,19.3-54.4,52-54.4
	C82.2,33.3,101.9,54.8,101.9,87z M28.9,87.2c0,19.9,8.6,31.7,22.3,31.7c14.1,0,21.9-11.8,21.9-31.5c0-21.5-8-31.6-22.3-31.6
	C37.6,55.8,28.9,65.5,28.9,87.2z"/>
<path class="st0" d="M119,178.1V35.4c0-1.2,0.9-2.1,2.1-2.1h24.2c1.2,0,2.1,1,2.1,2.1v13.2c4.4-7.6,13.5-15.3,29.9-15.3
	c23.3,0,41,19.5,41,51.4c0,36.4-19.9,56.7-44.8,56.7c-14.5,0-22.1-5.8-26.1-11.7v48.4c0,1.2-0.9,2.1-2.1,2.1c0,0,0,0,0,0h-24.2
	C119.9,180.2,119,179.3,119,178.1C119,178.1,119,178.1,119,178.1z M169.4,56.1c-16.1,0-21.9,10.5-21.9,31.2
	c0,19.7,5.4,31.1,20.7,31.1c15.1,0,22.5-11.8,22.5-32.6C190.6,66.9,183.1,56.1,169.4,56.1L169.4,56.1z"/>
<path class="st0" d="M264,93.4c0,12.9,6.7,25,20.9,25c11.2,0,14.7-3.8,17.4-9.3c0.4-0.7,1.1-1.2,1.9-1.2h24.2c1.2,0,2.1,1,2.1,2.2
	c0,0.2,0,0.5-0.1,0.7c-4.4,12.6-16.4,30.4-46.3,30.4c-34,0-48.8-25.3-48.8-52.4c0-32.5,16.5-55.6,49.8-55.6
	c35.2,0,47.4,25.7,47.4,51.4c0,2.8,0,4.7-0.2,6.8c-0.1,1.1-1,2-2.1,2L264,93.4z M303.9,75.9c-0.2-12-5.7-19.7-19.6-19.7
	c-13.5,0-18.4,7-19.6,19.7H303.9z"/>
<path class="st0" d="M349.6,61.6c0-8,0.2-18.6,0-26.4c0-1.2,0.9-2.1,2.1-2.1c0,0,0,0,0,0h24.4c1.2,0,2.1,0.9,2.1,2.1c0,0,0,0,0,0
	v13.4c3.4-6.4,11.8-15.5,29.9-15.5c20.7,0,34,14.1,34,40V139c0,1.2-0.9,2.1-2.1,2.1c0,0,0,0,0,0h-24.1c-1.2,0-2.1-0.9-2.1-2.1
	c0,0,0,0,0,0V76.3c0-11.7-3.8-20.1-16.5-20.1c-12.1,0-18.9,6.8-18.9,25.1v57.8c0,1.2-0.9,2.1-2.1,2.1h-24.4c-1.2,0-2.1-0.9-2.1-2.1
	V61.6z"/>
<path class="st1" d="M507.3,118h62.3c1.2,0,2.1,0.9,2.1,2.1c0,0,0,0,0,0v18.9c0,1.2-0.9,2.1-2.1,2.1c0,0,0,0,0,0h-86.8
	c-1.2,0-2.1-0.9-2.1-2.1V2.1c0-1.2,1-2.1,2.1-2.1h22.4c1.2,0,2.1,1,2.1,2.1c0,0,0,0,0,0V118z"/>
<path class="st1" d="M596.3,0h75.3c1.2,0,2.1,1,2.1,2.1v19.1c0,1.2-0.9,2.1-2.1,2.1c0,0,0,0,0,0h-24.7v94.8h24.7
	c1.2,0,2.1,0.9,2.1,2.1c0,0,0,0,0,0v18.8c0,1.2-0.9,2.1-2.1,2.1c0,0,0,0,0,0h-75.3c-1.2,0-2.1-0.9-2.1-2.1v-18.8
	c0-1.2,0.9-2.1,2.1-2.1c0,0,0,0,0,0h24V23.3h-24c-1.2,0-2.1-0.9-2.1-2.1c0,0,0,0,0,0v-19C594.2,1,595.2,0,596.3,0z"/>
</svg>
